<?xml version="1.0" encoding="UTF-8" standalone="no"?>
<!-- Created with Inkscape (http://www.inkscape.org/) -->

<svg
   width="16mm"
   height="16mm"
   viewBox="0 0 16 16"
   version="1.1"
   id="svg1"
   xml:space="preserve"
   inkscape:version="1.4.2 (f4327f4, 2025-05-13)"
   sodipodi:docname="favicon.svg"
   xmlns:inkscape="http://www.inkscape.org/namespaces/inkscape"
   xmlns:sodipodi="http://sodipodi.sourceforge.net/DTD/sodipodi-0.dtd"
   xmlns:xlink="http://www.w3.org/1999/xlink"
   xmlns="http://www.w3.org/2000/svg"
   xmlns:svg="http://www.w3.org/2000/svg"><sodipodi:namedview
     id="namedview1"
     pagecolor="#ffffff"
     bordercolor="#666666"
     borderopacity="1.0"
     inkscape:showpageshadow="2"
     inkscape:pageopacity="0.0"
     inkscape:pagecheckerboard="0"
     inkscape:deskcolor="#d1d1d1"
     inkscape:document-units="mm"
     inkscape:zoom="6.1128233"
     inkscape:cx="59.301567"
     inkscape:cy="62.736968"
     inkscape:window-width="2560"
     inkscape:window-height="1494"
     inkscape:window-x="-11"
     inkscape:window-y="-11"
     inkscape:window-maximized="1"
     inkscape:current-layer="layer1" /><defs
     id="defs1"><linearGradient
       id="linearGradient1"
       inkscape:collect="always"><stop
         style="stop-color:#0088aa;stop-opacity:1;"
         offset="0"
         id="stop1" /><stop
         style="stop-color:#00aad4;stop-opacity:0;"
         offset="1"
         id="stop2" /></linearGradient><linearGradient
       inkscape:collect="always"
       xlink:href="#linearGradient1"
       id="linearGradient2"
       x1="79.33197"
       y1="186.31065"
       x2="28.352098"
       y2="262.60416"
       gradientUnits="userSpaceOnUse"
       gradientTransform="matrix(0.13857053,0,0,0.13857053,1.1030453,-17.629501)" /></defs><g
     inkscape:label="Calque 1"
     inkscape:groupmode="layer"
     id="layer1"><path
       id="path32-7-2"
       style="fill:url(#linearGradient2);fill-opacity:1;fill-rule:evenodd;stroke:#ffffff;stroke-width:0.0221738;stroke-linecap:round;stroke-linejoin:round;stroke-opacity:1"
       d="m 9.6748911,4.1337299 a 1.0667038,2.3652356 0 0 1 0.01311,0.002 H 9.6749601 8.5195609 7.9464803 a 1.562457,1.5514623 0 0 0 -0.1535999,0.0332 1.562457,1.5514623 0 0 0 -0.2088812,0.0774 1.562457,1.5514623 0 0 0 -0.1957059,0.10606 1.562457,1.5514623 0 0 0 -0.1784484,0.13261 1.562457,1.5514623 0 0 0 -0.1576101,0.15654 1.562457,1.5514623 0 0 0 -0.1336208,0.17723 1.562457,1.5514623 0 0 0 -0.1068392,0.19427 1.562457,1.5514623 0 0 0 -0.07791,0.20738 1.562457,1.5514623 0 0 0 -0.047333,0.21633 1.562457,1.5514623 0 0 0 -0.015969,0.22077 1.562457,1.5514623 0 0 0 0,0.007 v 0.28658 0.28672 h 1.385e-4 v 1.02371 a 2.3760733,1.059199 0 0 1 0.00229,-0.0286 v 0.45378 0.82801 h 0.00258 V 12.24701 a 1.5624261,1.5624261 0 0 1 -0.00258,-0.0117 1.5624261,1.5624261 0 0 0 0,-7e-5 V 11.66223 11.1188 h -0.00111 v 4.58944 h 2.1196774 v -2.1973 h -0.00125 v 2.8e-4 7e-5 h -0.00258 V 8.5146899 h 0.00258 v -2.27693 H 9.6780371 10.58825 v 0.003 0.86732 1.40646 h 0.34236 a 2.37607,1.0618399 0 0 0 0.06817,-0.008 2.37607,1.0618399 0 0 0 0.317655,-0.0529 2.37607,1.0618399 0 0 0 0.297533,-0.0725 2.37607,1.0618399 0 0 0 0.271466,-0.0908 2.37607,1.0618399 0 0 0 0.239673,-0.1072 2.37607,1.0618399 0 0 0 0.203153,-0.12123 2.37607,1.0618399 0 0 0 0.16255,-0.13298 2.37607,1.0618399 0 0 0 0.118441,-0.142 2.37607,1.0618399 0 0 0 0.07204,-0.14801 2.37607,1.0618399 0 0 0 0.02413,-0.15095 v 1.02607 h 1.38e-4 v -2.2737 -0.28608 -0.57043 a 1.5624548,1.5553303 0 0 0 -0.03344,-0.15303 1.5624548,1.5553303 0 0 0 -0.07784,-0.20788 1.5624548,1.5553303 0 0 0 -0.106839,-0.19477 1.5624548,1.5553303 0 0 0 -0.133622,-0.17766 1.5624548,1.5553303 0 0 0 -0.157609,-0.1569 1.5624548,1.5553303 0 0 0 -0.17852,-0.13297 1.5624548,1.5553303 0 0 0 -0.195634,-0.10641 1.5624548,1.5553303 0 0 0 -0.208881,-0.0776 1.5624548,1.5553303 0 0 0 -0.20394,-0.0441 z" /><path
       id="path32-2-5-7-3"
       style="fill:#006680;fill-opacity:1;fill-rule:evenodd;stroke:#ffffff;stroke-width:0.0692853;stroke-linecap:round;stroke-linejoin:round;stroke-dasharray:none;stroke-opacity:1"
       d="m 3.0847468,3.1835999 v 1.45748 h 0.00268 v 2.3815 a 1.5763125,0.99693524 0 0 1 -0.00268,-0.007 v -0.36562 -0.34676 h -0.00119 v 2.9284 h 0.00267 v -0.72234 h 2.231e-4 v 0.72234 h 0.042446 a 2.3937959,0.91478379 0 0 1 0.05453,-0.0959 2.3937959,0.91478379 0 0 1 0.1193206,-0.12233 2.3937959,0.91478379 0 0 1 0.1637689,-0.11454 2.3937959,0.91478379 0 0 1 0.2046817,-0.10453 2.3937959,0.91478379 0 0 1 0.2414694,-0.0923 2.3937959,0.91478379 0 0 1 0.2734202,-0.0782 2.3937959,0.91478379 0 0 1 0.2997748,-0.0625 2.3937959,0.91478379 0 0 1 0.3200518,-0.0457 2.3937959,0.91478379 0 0 1 0.068679,-0.006 h 0.3449328 v 0.72235 h 0.00267 v -1.40201 h -0.00119 v 6e-5 h -0.00267 v -3.18815 h 0.00267 v -1.45742 H 4.8755948 a 2.3971441,0.68061785 0 0 0 -0.068798,0.005 2.3971441,0.68061785 0 0 0 -0.032896,0.003 2.3584914,1.0667128 0 0 0 -0.3093222,0.0522 2.3584914,1.0667128 0 0 0 -0.2953518,0.0729 2.3584914,1.0667128 0 0 0 -0.269413,0.0911 2.3584914,1.0667128 0 0 0 -0.237931,0.10764 2.3584914,1.0667128 0 0 0 -0.2016165,0.12186 2.3584914,1.0667128 0 0 0 -0.1612943,0.13353 2.3584914,1.0667128 0 0 0 -0.1176127,0.14272 2.3584914,1.0667128 0 0 0 -0.07145,0.14868 2.3584914,1.0667128 0 0 0 -0.024061,0.1518 v -0.37647 a 2.3971441,0.68061785 0 0 0 -8.869e-4,0.003 v -0.65785 z" /><path
       id="path32-2-2-4"
       style="fill:#0088aa;fill-opacity:1;fill-rule:evenodd;stroke:#ffffff;stroke-width:0.0692853;stroke-linecap:round;stroke-linejoin:round;stroke-dasharray:none;stroke-opacity:1"
       d="m 12.705423,7.4891399 a 2.4946781,1.0666838 0 0 1 -0.02543,0.1518 2.4946781,1.0666838 0 0 1 -0.07566,0.14868 2.4946781,1.0666838 0 0 1 -0.124355,0.14266 2.4946781,1.0666838 0 0 1 -0.170565,0.13353 2.4946781,1.0666838 0 0 1 -0.213294,0.12186 2.4946781,1.0666838 0 0 1 -0.251661,0.10764 2.4946781,1.0666838 0 0 1 -0.285003,0.0911 2.4946781,1.0666838 0 0 1 -0.31245,0.0729 2.4946781,1.0666838 0 0 1 -0.333457,0.0532 2.4946781,1.0666838 0 0 1 -0.07159,0.007 l -0.35943,-1.1e-4 H 9.5478391 8.5921399 6.3690603 4.8632408 v 0.01 a 2.3821075,0.80869688 0 0 0 -0.066457,0.005 2.3821075,0.80869688 0 0 0 -0.3184654,0.0403 2.3821075,0.80869688 0 0 0 -0.2982835,0.0553 2.3821075,0.80869688 0 0 0 -0.2721371,0.0692 2.3821075,0.80869688 0 0 0 -0.2403283,0.0816 2.3821075,0.80869688 0 0 0 -0.2036748,0.0924 2.3821075,0.80869688 0 0 0 -0.1628957,0.10122 2.3821075,0.80869688 0 0 0 -0.1187444,0.10818 2.3821075,0.80869688 0 0 0 -0.07224,0.11271 2.3821075,0.80869688 0 0 0 -0.024269,0.11508 v -0.78159 H 3.0855233 V 10.26053 h 0.00267 v 2.82965 a 1.566425,1.184539 0 0 1 -0.00267,-0.009 V 12.6467 12.23474 h -0.00119 v 3.47943 h 2.1251085 v -1.66585 h -0.00119 v 2.8e-4 5e-5 h -0.00269 V 10.6365 h 1.1632717 2.2230798 1.8903887 0.281817 0.601701 a 1.6404492,1.5624256 0 0 0 0.1613,-0.0334 1.6404492,1.5624256 0 0 0 0.219315,-0.0779 1.6404492,1.5624256 0 0 0 0.205448,-0.10682 1.6404492,1.5624256 0 0 0 0.187325,-0.13359 1.6404492,1.5624256 0 0 0 0.165548,-0.15764 1.6404492,1.5624256 0 0 0 0.140234,-0.1784501 1.6404492,1.5624256 0 0 0 0.112194,-0.19566 1.6404492,1.5624256 0 0 0 0.0818,-0.20887 1.6404492,1.5624256 0 0 0 0.04975,-0.21783 1.6404492,1.5624256 0 0 0 0.01669,-0.22237 v -2.8e-4 -2.7e-4 -2.8e-4 -5.5e-4 -2.8e-4 -2.8e-4 -2.8e-4 -2.7e-4 -2.8e-4 -2.8e-4 -5.5e-4 -2.8e-4 -2.8e-4 -2.7e-4 -2.8e-4 -2.8e-4 -5.5e-4 -2.8e-4 -2.8e-4 -2.7e-4 -0.57732 h -2.22e-4 v -1.2e-4 z" /><path
       id="path30-9-8-3"
       style="fill:#004455;fill-opacity:1;fill-rule:evenodd;stroke:#ffffff;stroke-width:0.0692853;stroke-linecap:round;stroke-linejoin:round;stroke-dasharray:none;stroke-opacity:1"
       d="m 13.530227,0.03524293 a 2.3760287,1.0666852 0 0 1 -0.02424,0.151804 2.3760287,1.0666852 0 0 1 -0.07198,0.148678 2.3760287,1.0666852 0 0 1 -0.118492,0.142664 2.3760287,1.0666852 0 0 1 -0.162473,0.133528 2.3760287,1.0666852 0 0 1 -0.203153,0.121855 2.3760287,1.0666852 0 0 1 -0.239699,0.107647 2.3760287,1.0666852 0 0 1 -0.271418,0.09114 2.3760287,1.0666852 0 0 1 -0.297532,0.07293 2.3760287,1.0666852 0 0 1 -0.317636,0.05323 2.3760287,1.0666852 0 0 1 -0.06821,0.0075 h -0.421803 v -5.9e-5 H 4.920804 4.3519134 a 1.5508955,1.562468 0 0 0 -0.1524513,0.03342 1.5508955,1.562468 0 0 0 -0.2073346,0.07793 1.5508955,1.562468 0 0 0 -0.1942495,0.106824 1.5508955,1.562468 0 0 0 -0.1770917,0.133585 1.5508955,1.562468 0 0 0 -0.1565205,0.157638 1.5508955,1.562468 0 0 0 -0.1325842,0.178509 1.5508955,1.562468 0 0 0 -0.1061134,0.195663 1.5508955,1.562468 0 0 0 -0.077284,0.208861 1.5508955,1.562468 0 0 0 -0.047045,0.21784 1.5508955,1.562468 0 0 0 -0.015801,0.22236 1.5508955,1.562468 0 0 0 0,6e-5 1.5508955,1.562468 0 0 0 0,6e-5 1.5508955,1.562468 0 0 0 0,6e-5 1.5508955,1.562468 0 0 0 0,6e-5 1.5508955,1.562468 0 0 0 0,6e-5 1.5508955,1.562468 0 0 0 0,6e-5 1.5508955,1.562468 0 0 0 0,6e-5 1.5508955,1.562468 0 0 0 0,6e-5 1.5508955,1.562468 0 0 0 0,5e-5 1.5508955,1.562468 0 0 0 0,6e-5 1.5508955,1.562468 0 0 0 0,6e-5 1.5508955,1.562468 0 0 0 0,6e-5 1.5508955,1.562468 0 0 0 0,6e-5 1.5508955,1.562468 0 0 0 0,6e-5 1.5508955,1.562468 0 0 0 0,6e-5 1.5508955,1.562468 0 0 0 0,6e-5 1.5508955,1.562468 0 0 0 0,6e-5 1.5508955,1.562468 0 0 0 0,5e-5 1.5508955,1.562468 0 0 0 0,6e-5 1.5508955,1.562468 0 0 0 0,6e-5 1.5508955,1.562468 0 0 0 0,6e-5 1.5508955,1.562468 0 0 0 0,6e-5 1.5508955,1.562468 0 0 0 0,6e-5 1.5508955,1.562468 0 0 0 0,6e-5 1.5508955,1.562468 0 0 0 0,6e-5 1.5508955,1.562468 0 0 0 0,6e-5 1.5508955,1.562468 0 0 0 0,6e-5 1.5508955,1.562468 0 0 0 0,5e-5 1.5508955,1.562468 0 0 0 0,6e-5 1.5508955,1.562468 0 0 0 0,6e-5 1.5508955,1.562468 0 0 0 0,6e-5 1.5508955,1.562468 0 0 0 0,6e-5 1.5508955,1.562468 0 0 0 0,6e-5 1.5508955,1.562468 0 0 0 0,6e-5 1.5508955,1.562468 0 0 0 0,6e-5 1.5508955,1.562468 0 0 0 0,6e-5 1.5508955,1.562468 0 0 0 0,6e-5 1.5508955,1.562468 0 0 0 0,6e-5 1.5508955,1.562468 0 0 0 0,5e-5 1.5508955,1.562468 0 0 0 0,6e-5 1.5508955,1.562468 0 0 0 0,6e-5 1.5508955,1.562468 0 0 0 0,6e-5 1.5508955,1.562468 0 0 0 0,6e-5 1.5508955,1.562468 0 0 0 0,6e-5 1.5508955,1.562468 0 0 0 0,6e-5 1.5508955,1.562468 0 0 0 0,5e-5 1.5508955,1.562468 0 0 0 0,6e-5 1.5508955,1.562468 0 0 0 0,6e-5 1.5508955,1.562468 0 0 0 0,6e-5 1.5508955,1.562468 0 0 0 0,6e-5 1.5508955,1.562468 0 0 0 0,6e-5 1.5508955,1.562468 0 0 0 0,6e-5 1.5508955,1.562468 0 0 0 0,6e-5 1.5508955,1.562468 0 0 0 0,6e-5 1.5508955,1.562468 0 0 0 0,6e-5 1.5508955,1.562468 0 0 0 0,6e-5 1.5508955,1.562468 0 0 0 0,5e-5 1.5508955,1.562468 0 0 0 0,6e-5 1.5508955,1.562468 0 0 0 0,6e-5 1.5508955,1.562468 0 0 0 0,6e-5 1.5508955,1.562468 0 0 0 0,6e-5 1.5508955,1.562468 0 0 0 0,6e-5 1.5508955,1.562468 0 0 0 0,6e-5 1.5508955,1.562468 0 0 0 0,5e-5 1.5508955,1.562468 0 0 0 0,6e-5 1.5508955,1.562468 0 0 0 0,6e-5 1.5508955,1.562468 0 0 0 0,6e-5 1.5508955,1.562468 0 0 0 0,6e-5 1.5508955,1.562468 0 0 0 0,6e-5 1.5508955,1.562468 0 0 0 0,6e-5 1.5508955,1.562468 0 0 0 0,6e-5 1.5508955,1.562468 0 0 0 0,6e-5 1.5508955,1.562468 0 0 0 0,6e-5 1.5508955,1.562468 0 0 0 0,6e-5 1.5508955,1.562468 0 0 0 0,6e-5 1.5508955,1.562468 0 0 0 0,6e-5 1.5508955,1.562468 0 0 0 0,5e-5 1.5508955,1.562468 0 0 0 0,6e-5 1.5508955,1.562468 0 0 0 0,6e-5 1.5508955,1.562468 0 0 0 0,6e-5 1.5508955,1.562468 0 0 0 0,6e-5 1.5508955,1.562468 0 0 0 0,6e-5 1.5508955,1.562468 0 0 0 0,6e-5 1.5508955,1.562468 0 0 0 0,5e-5 1.5508955,1.562468 0 0 0 0,6e-5 1.5508955,1.562468 0 0 0 0,6e-5 1.5508955,1.562468 0 0 0 0,6e-5 1.5508955,1.562468 0 0 0 0,6e-5 1.5508955,1.562468 0 0 0 0,6e-5 1.5508955,1.562468 0 0 0 0,6e-5 1.5508955,1.562468 0 0 0 0,6e-5 1.5508955,1.562468 0 0 0 0,6e-5 1.5508955,1.562468 0 0 0 0,6e-5 1.5508955,1.562468 0 0 0 0,6e-5 1.5508955,1.562468 0 0 0 0,6e-5 1.5508955,1.562468 0 0 0 0,6e-5 1.5508955,1.562468 0 0 0 0,5e-5 1.5508955,1.562468 0 0 0 0,6e-5 1.5508955,1.562468 0 0 0 0,6e-5 1.5508955,1.562468 0 0 0 0,6e-5 1.5508955,1.562468 0 0 0 0,6e-5 1.5508955,1.562468 0 0 0 0,6e-5 1.5508955,1.562468 0 0 0 0,6e-5 1.5508955,1.562468 0 0 0 0,6e-5 1.5508955,1.562468 0 0 0 0,5e-5 1.5508955,1.562468 0 0 0 0,6e-5 1.5508955,1.562468 0 0 0 0,6e-5 1.5508955,1.562468 0 0 0 0,6e-5 1.5508955,1.562468 0 0 0 0,6e-5 1.5508955,1.562468 0 0 0 0,6e-5 1.5508955,1.562468 0 0 0 0,6e-5 1.5508955,1.562468 0 0 0 0,6e-5 1.5508955,1.562468 0 0 0 0,6e-5 1.5508955,1.562468 0 0 0 0,6e-5 1.5508955,1.562468 0 0 0 0,5e-5 1.5508955,1.562468 0 0 0 0,6e-5 1.5508955,1.562468 0 0 0 0,6e-5 1.5508955,1.562468 0 0 0 0,6e-5 1.5508955,1.562468 0 0 0 0,6e-5 1.5508955,1.562468 0 0 0 0,6e-5 1.5508955,1.562468 0 0 0 0,6e-5 1.5508955,1.562468 0 0 0 0,6e-5 1.5508955,1.562468 0 0 0 0,5e-5 1.5508955,1.562468 0 0 0 0,6e-5 1.5508955,1.562468 0 0 0 0,6e-5 1.5508955,1.562468 0 0 0 0,6e-5 1.5508955,1.562468 0 0 0 0,6e-5 v 0.57738 h 2.221e-4 v 1.03096 a 2.3584914,1.0667128 0 0 1 0.024062,-0.1518 2.3584914,1.0667128 0 0 1 0.07145,-0.14868 2.3584914,1.0667128 0 0 1 0.1176096,-0.14272 2.3584914,1.0667128 0 0 1 0.1612944,-0.13353 2.3584914,1.0667128 0 0 1 0.2016161,-0.12186 2.3584914,1.0667128 0 0 1 0.2379311,-0.10764 2.3584914,1.0667128 0 0 1 0.2694132,-0.0911 2.3584914,1.0667128 0 0 1 0.295352,-0.0729 2.3584914,1.0667128 0 0 1 0.3152777,-0.0532 2.3584914,1.0667128 0 0 1 0.067737,-0.007 h 0.3735811 0.8499186 5.2626803 0.347877 0.573079 a 1.5624275,1.5624275 0 0 0 0.15363,-0.0334 1.5624275,1.5624275 0 0 0 0.208868,-0.0779 1.5624275,1.5624275 0 0 0 0.195663,-0.10682 1.5624275,1.5624275 0 0 0 0.178449,-0.13358 1.5624275,1.5624275 0 0 0 0.157638,-0.15764 1.5624275,1.5624275 0 0 0 0.133585,-0.17845 1.5624275,1.5624275 0 0 0 0.106883,-0.19567 1.5624275,1.5624275 0 0 0 0.07788,-0.208861 1.5624275,1.5624275 0 0 0 0.0474,-0.21783 1.5624275,1.5624275 0 0 0 0.01592,-0.222368 1.5624275,1.5624275 0 0 0 0,-5.9e-5 1.5624275,1.5624275 0 0 0 0,-5.7e-5 1.5624275,1.5624275 0 0 0 0,-6e-5 1.5624275,1.5624275 0 0 0 0,-5.9e-5 1.5624275,1.5624275 0 0 0 0,-5.9e-5 1.5624275,1.5624275 0 0 0 0,-5.9e-5 1.5624275,1.5624275 0 0 0 0,-6e-5 1.5624275,1.5624275 0 0 0 0,-5.9e-5 1.5624275,1.5624275 0 0 0 0,-5.7e-5 1.5624275,1.5624275 0 0 0 0,-6e-5 1.5624275,1.5624275 0 0 0 0,-5.9e-5 1.5624275,1.5624275 0 0 0 0,-5.9e-5 1.5624275,1.5624275 0 0 0 0,-5.9e-5 1.5624275,1.5624275 0 0 0 0,-6e-5 1.5624275,1.5624275 0 0 0 0,-5.9e-5 1.5624275,1.5624275 0 0 0 0,-5.7e-5 1.5624275,1.5624275 0 0 0 0,-6e-5 1.5624275,1.5624275 0 0 0 0,-5.8e-5 1.5624275,1.5624275 0 0 0 0,-6e-5 1.5624275,1.5624275 0 0 0 0,-5.9e-5 1.5624275,1.5624275 0 0 0 0,-6e-5 1.5624275,1.5624275 0 0 0 0,-5.9e-5 1.5624275,1.5624275 0 0 0 0,-5.7e-5 1.5624275,1.5624275 0 0 0 0,-6e-5 1.5624275,1.5624275 0 0 0 0,-5.9e-5 1.5624275,1.5624275 0 0 0 0,-5.8e-5 1.5624275,1.5624275 0 0 0 0,-6e-5 1.5624275,1.5624275 0 0 0 0,-6e-5 1.5624275,1.5624275 0 0 0 0,-5.6e-5 1.5624275,1.5624275 0 0 0 0,-6e-5 1.5624275,1.5624275 0 0 0 0,-6e-5 1.5624275,1.5624275 0 0 0 0,-5.8e-5 1.5624275,1.5624275 0 0 0 0,-5.9e-5 1.5624275,1.5624275 0 0 0 0,-6e-5 1.5624275,1.5624275 0 0 0 0,-6e-5 1.5624275,1.5624275 0 0 0 0,-5.6e-5 1.5624275,1.5624275 0 0 0 0,-6e-5 1.5624275,1.5624275 0 0 0 0,-6e-5 1.5624275,1.5624275 0 0 0 0,-5.8e-5 1.5624275,1.5624275 0 0 0 0,-5.9e-5 1.5624275,1.5624275 0 0 0 0,-6e-5 1.5624275,1.5624275 0 0 0 0,-5.7e-5 1.5624275,1.5624275 0 0 0 0,-5.9e-5 1.5624275,1.5624275 0 0 0 0,-6e-5 1.5624275,1.5624275 0 0 0 0,-6e-5 1.5624275,1.5624275 0 0 0 0,-5.8e-5 1.5624275,1.5624275 0 0 0 0,-5.9e-5 1.5624275,1.5624275 0 0 0 0,-5.7e-5 1.5624275,1.5624275 0 0 0 0,-6e-5 1.5624275,1.5624275 0 0 0 0,-5.9e-5 1.5624275,1.5624275 0 0 0 0,-6e-5 1.5624275,1.5624275 0 0 0 0,-5.8e-5 1.5624275,1.5624275 0 0 0 0,-6e-5 1.5624275,1.5624275 0 0 0 0,-5.6e-5 1.5624275,1.5624275 0 0 0 0,-6e-5 1.5624275,1.5624275 0 0 0 0,-6e-5 1.5624275,1.5624275 0 0 0 0,-5.9e-5 1.5624275,1.5624275 0 0 0 0,-6e-5 1.5624275,1.5624275 0 0 0 0,-5.8e-5 1.5624275,1.5624275 0 0 0 0,-5.7e-5 1.5624275,1.5624275 0 0 0 0,-5.9e-5 1.5624275,1.5624275 0 0 0 0,-6e-5 1.5624275,1.5624275 0 0 0 0,-6e-5 1.5624275,1.5624275 0 0 0 0,-5.9e-5 1.5624275,1.5624275 0 0 0 0,-6e-5 1.5624275,1.5624275 0 0 0 0,-5.5e-5 1.5624275,1.5624275 0 0 0 0,-6e-5 1.5624275,1.5624275 0 0 0 0,-5.9e-5 1.5624275,1.5624275 0 0 0 0,-6e-5 1.5624275,1.5624275 0 0 0 0,-6e-5 1.5624275,1.5624275 0 0 0 0,-5.9e-5 1.5624275,1.5624275 0 0 0 0,-5.8e-5 1.5624275,1.5624275 0 0 0 0,-5.7e-5 1.5624275,1.5624275 0 0 0 0,-6e-5 1.5624275,1.5624275 0 0 0 0,-5.9e-5 1.5624275,1.5624275 0 0 0 0,-6e-5 1.5624275,1.5624275 0 0 0 0,-5.9e-5 1.5624275,1.5624275 0 0 0 0,-6e-5 1.5624275,1.5624275 0 0 0 0,-6e-5 1.5624275,1.5624275 0 0 0 0,-5.8e-5 1.5624275,1.5624275 0 0 0 0,-5.7e-5 1.5624275,1.5624275 0 0 0 0,-5.9e-5 1.5624275,1.5624275 0 0 0 0,-6e-5 1.5624275,1.5624275 0 0 0 0,-5.9e-5 1.5624275,1.5624275 0 0 0 0,-6e-5 1.5624275,1.5624275 0 0 0 0,-5.8e-5 1.5624275,1.5624275 0 0 0 0,-6e-5 1.5624275,1.5624275 0 0 0 0,-5.7e-5 1.5624275,1.5624275 0 0 0 0,-5.9e-5 1.5624275,1.5624275 0 0 0 0,-6e-5 1.5624275,1.5624275 0 0 0 0,-5.9e-5 1.5624275,1.5624275 0 0 0 0,-6e-5 1.5624275,1.5624275 0 0 0 0,-5.8e-5 1.5624275,1.5624275 0 0 0 0,-5.7e-5 1.5624275,1.5624275 0 0 0 0,-6e-5 1.5624275,1.5624275 0 0 0 0,-5.9e-5 1.5624275,1.5624275 0 0 0 0,-6e-5 1.5624275,1.5624275 0 0 0 0,-5.9e-5 1.5624275,1.5624275 0 0 0 0,-6e-5 1.5624275,1.5624275 0 0 0 0,-5.5e-5 1.5624275,1.5624275 0 0 0 0,-6e-5 1.5624275,1.5624275 0 0 0 0,-5.9e-5 1.5624275,1.5624275 0 0 0 0,-6e-5 1.5624275,1.5624275 0 0 0 0,-6e-5 1.5624275,1.5624275 0 0 0 0,-5.9e-5 1.5624275,1.5624275 0 0 0 0,-6e-5 1.5624275,1.5624275 0 0 0 0,-5.5e-5 1.5624275,1.5624275 0 0 0 0,-6e-5 1.5624275,1.5624275 0 0 0 0,-5.9e-5 1.5624275,1.5624275 0 0 0 0,-6e-5 1.5624275,1.5624275 0 0 0 0,-6e-5 1.5624275,1.5624275 0 0 0 0,-5.9e-5 1.5624275,1.5624275 0 0 0 0,-5.6e-5 1.5624275,1.5624275 0 0 0 0,-5.9e-5 1.5624275,1.5624275 0 0 0 0,-6e-5 1.5624275,1.5624275 0 0 0 0,-5.9e-5 1.5624275,1.5624275 0 0 0 0,-6e-5 1.5624275,1.5624275 0 0 0 0,-6e-5 1.5624275,1.5624275 0 0 0 0,-5.6e-5 1.5624275,1.5624275 0 0 0 0,-5.9e-5 1.5624275,1.5624275 0 0 0 0,-5.9e-5 1.5624275,1.5624275 0 0 0 0,-6e-5 1.5624275,1.5624275 0 0 0 0,-5.9e-5 1.5624275,1.5624275 0 0 0 0,-6e-5 1.5624275,1.5624275 0 0 0 0,-5.7e-5 1.5624275,1.5624275 0 0 0 0,-5.8e-5 1.5624275,1.5624275 0 0 0 0,-5.9e-5 v -0.577381 h -2.21e-4 z" /></g></svg>
