<?xml version="1.0" encoding="UTF-8" standalone="no"?>
<svg
   width="48"
   height="48"
   version="1.1"
   id="svg1"
   sodipodi:docname="phone.svg"
   inkscape:version="1.4.2 (f4327f4, 2025-05-13)"
   inkscape:export-filename="email.png"
   inkscape:export-xdpi="47.020409"
   inkscape:export-ydpi="47.020409"
   xml:space="preserve"
   xmlns:inkscape="http://www.inkscape.org/namespaces/inkscape"
   xmlns:sodipodi="http://sodipodi.sourceforge.net/DTD/sodipodi-0.dtd"
   xmlns="http://www.w3.org/2000/svg"
   xmlns:svg="http://www.w3.org/2000/svg"><defs
     id="defs1"><rect
       x="11.51671"
       y="29.449871"
       width="72.226219"
       height="43.598972"
       id="rect2" /></defs><sodipodi:namedview
     id="namedview1"
     pagecolor="#ffffff"
     bordercolor="#000000"
     borderopacity="0.25"
     inkscape:showpageshadow="2"
     inkscape:pageopacity="0.0"
     inkscape:pagecheckerboard="0"
     inkscape:deskcolor="#d1d1d1"
     inkscape:zoom="7.9999996"
     inkscape:cx="-15.687501"
     inkscape:cy="37.812502"
     inkscape:window-width="2560"
     inkscape:window-height="1494"
     inkscape:window-x="-11"
     inkscape:window-y="-11"
     inkscape:window-maximized="1"
     inkscape:current-layer="svg1" /><ellipse
     style="fill:#fff8dc;stroke-width:0.483681;fill-opacity:1"
     id="path5"
     cx="24"
     cy="23.510202"
     rx="24"
     ry="23.510202" /><path
     id="rect1"
     style="fill:#012030;fill-opacity:1;stroke-width:0.68815"
     d="m 23.626005,11.053518 c 6.124343,2.360549 10.635891,6.717725 13.320547,13.320547 0.19295,0.474558 0.362238,0.945486 -10e-7,1.307727 -0.362239,0.362238 -1.134491,0.482104 -1.307725,-1e-6 C 33.43181,19.53976 29.309036,14.86511 22.318279,12.361245 c -0.482282,-0.17274 -0.362239,-0.945487 1e-6,-1.307726 0.36224,-0.362239 0.829718,-0.184242 1.307725,-10e-7 z"
     sodipodi:nodetypes="sssssss" /><path
     id="rect1-8"
     style="fill:#012030;fill-opacity:1;stroke-width:0.472543"
     d="m 23.697098,15.010978 c 4.205508,1.620958 7.303529,4.612974 9.147046,9.147046 0.132499,0.325874 0.248746,0.649253 2e-6,0.897999 -0.248745,0.248745 -0.779042,0.331054 -0.898,-1e-6 -1.515527,-4.217653 -4.346584,-7.427675 -9.147045,-9.147047 -0.331179,-0.118617 -0.248746,-0.649252 0,-0.897998 0.248745,-0.248745 0.569756,-0.126516 0.897997,10e-7 z"
     sodipodi:nodetypes="sssssss" /><path
     id="path10"
     style="fill:#012030;stroke:#000000;stroke-width:0.107941;stroke-linecap:round;stroke-linejoin:bevel"
     d="M 13.118094,10.881661 6.8935461,17.077935 A 20.891801,10.216265 44.787587 0 0 15.89419,32.010866 20.891801,10.216265 44.787587 0 0 30.896758,40.972114 L 37.121306,34.775839 32.383419,32.9003 30.08694,35.186346 A 15.12784,9.1569121 44.718725 0 1 18.706144,29.211686 15.12784,9.1569121 44.718725 0 1 12.705715,17.884075 l 2.296479,-2.286047 z" /></svg>
