<?xml version="1.0" encoding="UTF-8" standalone="no"?>
<svg
   width="48"
   height="48"
   version="1.1"
   id="svg1"
   sodipodi:docname="website.svg"
   inkscape:version="1.4.2 (f4327f4, 2025-05-13)"
   inkscape:export-filename="email.png"
   inkscape:export-xdpi="47.020409"
   inkscape:export-ydpi="47.020409"
   xmlns:inkscape="http://www.inkscape.org/namespaces/inkscape"
   xmlns:sodipodi="http://sodipodi.sourceforge.net/DTD/sodipodi-0.dtd"
   xmlns="http://www.w3.org/2000/svg"
   xmlns:svg="http://www.w3.org/2000/svg">
  <defs
     id="defs1">
    <inkscape:path-effect
       effect="fillet_chamfer"
       id="path-effect3"
       is_visible="true"
       lpeversion="1"
       nodesatellites_param="F,0,0,1,0,0,0,1 @ F,0,0,1,0,0,0,1 @ F,0,0,1,0,0,0,1 @ F,0,0,1,0,0,0,1"
       radius="0"
       unit="px"
       method="auto"
       mode="F"
       chamfer_steps="1"
       flexible="false"
       use_knot_distance="true"
       apply_no_radius="true"
       apply_with_radius="true"
       only_selected="false"
       hide_knots="false" />
    <rect
       x="11.51671"
       y="29.449871"
       width="72.226219"
       height="43.598972"
       id="rect2" />
  </defs>
  <sodipodi:namedview
     id="namedview1"
     pagecolor="#ffffff"
     bordercolor="#000000"
     borderopacity="0.25"
     inkscape:showpageshadow="2"
     inkscape:pageopacity="0.0"
     inkscape:pagecheckerboard="0"
     inkscape:deskcolor="#d1d1d1"
     inkscape:zoom="17.191534"
     inkscape:cx="32.632342"
     inkscape:cy="32.079744"
     inkscape:window-width="2560"
     inkscape:window-height="1369"
     inkscape:window-x="-8"
     inkscape:window-y="-8"
     inkscape:window-maximized="1"
     inkscape:current-layer="svg1" />
  <ellipse
     style="fill:#fff8dc;fill-opacity:0.996078;stroke-width:0.483681"
     id="path5"
     cx="24.116337"
     cy="24.405006"
     rx="24"
     ry="23.510202" />
  <path
     id="path1"
     style="fill:#004455;stroke-width:1.38343"
     d="M 24.116336,0.31863293 A 24,23.798119 0 0 0 0.11633633,24.117461 24,23.798119 0 0 0 24.116336,47.914336 a 24,23.798119 0 0 0 24,-23.796875 24,23.798119 0 0 0 -24,-23.79882807 z m 0,2.71484377 A 21.007366,21.083464 0 0 1 45.124148,24.117461 21.007366,21.083464 0 0 1 24.116336,45.201446 21.007366,21.083464 0 0 1 3.1085238,24.117461 21.007366,21.083464 0 0 1 24.116336,3.0334767 Z" />
  <rect
     style="fill:#004455;stroke-width:1.04643"
     id="rect3"
     width="42.875988"
     height="2.3033419"
     x="2.8380218"
     y="14.77104" />
  <rect
     style="fill:#004455;stroke-width:1.05032"
     id="rect3-7"
     width="43.195343"
     height="2.3033419"
     x="2.5186665"
     y="32.191006" />
  <path
     id="rect3-8-5"
     style="fill:#004455;stroke-width:1.36946"
     d="m 20.397586,0.82839853 c 0,0 -21.442476,23.51100147 0,45.46484447 0.641697,0.657001 3.720703,-2e-6 3.720703,0 0,0 3.077053,0.657001 3.71875,0 21.442475,-21.953843 0,-45.46484447 0,-45.46484447 h -3.71875 z m 1.003906,2.20507817 h 2.714844 2.714844 c 0,0 15.652219,21.6654973 0,41.8964843 -0.1311,0.16945 -0.401237,0.244104 -0.722656,0.263672 a 2.2483928,0.71979499 0 0 1 -1.949219,0.386719 2.2483928,0.71979499 0 0 1 -2.035157,-0.386719 c -0.321419,-0.01957 -0.591557,-0.09422 -0.722656,-0.263672 -15.6522197,-20.230986 0,-41.8964843 0,-41.8964843 z" />
</svg>
